<?xml version="1.0" standalone="no"?>
<!DOCTYPE svg PUBLIC "-//W3C//DTD SVG 20010904//EN"
 "http://www.w3.org/TR/2001/REC-SVG-20010904/DTD/svg10.dtd">
<svg version="1.0" xmlns="http://www.w3.org/2000/svg"
 width="315.000000pt" height="314.000000pt" viewBox="0 0 315.000000 314.000000"
 preserveAspectRatio="xMidYMid meet">

<g transform="translate(0.000000,314.000000) scale(0.100000,-0.100000)"
fill="#000000" stroke="none">
<path d="M1460 3054 c-296 -37 -468 -90 -665 -203 -153 -88 -335 -257 -434
-405 -246 -365 -325 -889 -197 -1312 127 -419 454 -750 881 -893 173 -58 285
-75 500 -74 142 0 207 4 310 22 696 122 1106 587 1154 1311 20 308 -22 538
-145 788 -194 393 -568 666 -1021 747 -89 16 -318 27 -383 19z m-150 -472 c0
-4 -21 -18 -47 -32 -81 -43 -176 -142 -268 -281 -111 -165 -197 -346 -220
-459 -23 -115 -25 -120 -36 -92 -4 12 -5 30 -2 39 5 12 2 15 -9 11 -8 -4 -21
-3 -28 2 -18 11 196 428 293 570 83 121 222 246 263 236 13 -4 26 -2 29 4 7
12 25 13 25 2z m113 -20 c-2 -10 -35 -31 -79 -51 -92 -42 -199 -138 -279 -250
-30 -43 -61 -84 -70 -91 -39 -33 -136 -278 -185 -467 -10 -41 -23 -53 -34 -34
-22 36 130 445 191 515 17 19 52 67 78 108 79 120 212 234 322 274 51 18 62
17 56 -4z m-273 5 c0 -1 -30 -34 -67 -72 -96 -100 -176 -225 -300 -471 -101
-200 -127 -237 -140 -199 -6 19 319 592 374 660 28 34 133 99 133 82z m-184
-46 c-4 -6 -16 -16 -27 -22 -20 -10 -20 -10 -4 21 12 22 20 29 27 22 6 -6 7
-15 4 -21z m444 -26 c-7 -8 -9 -15 -4 -15 5 0 -16 -14 -46 -31 -30 -16 -81
-56 -113 -87 -75 -73 -219 -256 -250 -319 -38 -74 -93 -228 -117 -328 -12 -49
-24 -92 -26 -94 -2 -2 -10 1 -18 8 -11 10 -8 29 20 129 60 212 93 287 188 427
85 125 214 253 295 293 71 35 90 40 71 17z m-525 -45 c-19 -19 -31 -26 -34
-19 -2 7 6 21 19 31 36 29 46 21 15 -12z m62 -14 c-3 -8 -30 -53 -61 -100 -53
-82 -79 -128 -183 -321 -66 -124 -71 -131 -79 -123 -4 4 -3 13 3 20 5 7 16 33
23 58 14 45 165 339 203 395 32 48 70 85 85 85 8 0 12 -6 9 -14z m573 4 c0 -5
-10 -10 -23 -10 -38 0 -161 -65 -209 -111 -59 -56 -78 -91 -139 -256 -55 -147
-76 -240 -86 -375 -3 -49 -9 -88 -13 -88 -25 0 -28 30 -14 145 20 176 21 179
76 308 16 38 27 71 24 74 -11 11 -28 -12 -62 -85 -37 -81 -58 -176 -70 -316
-7 -85 -21 -125 -41 -113 -7 4 -4 36 8 94 10 49 18 102 18 118 0 61 -27 -3
-45 -106 -17 -98 -35 -142 -50 -126 -5 5 1 56 14 115 29 142 122 348 201 447
31 39 77 97 101 129 46 60 115 117 180 148 39 18 130 24 130 8z m256 -5 c4 -8
16 -15 29 -15 29 0 109 -70 139 -123 14 -23 34 -80 46 -127 29 -110 24 -259
-13 -401 -56 -216 -143 -309 -289 -309 -59 -1 -62 -2 -43 -16 27 -21 108 -13
165 16 56 29 114 91 145 156 49 103 93 356 80 459 -10 78 -55 236 -77 274 -17
27 -19 35 -7 42 22 14 25 12 68 -40 37 -44 110 -173 111 -194 0 -5 8 -20 19
-33 25 -32 45 -167 38 -267 -5 -87 -59 -250 -111 -340 -55 -92 -196 -204 -300
-237 -79 -25 -196 5 -269 70 -43 37 -117 163 -117 198 0 13 -6 30 -14 37 -21
22 -39 150 -33 235 3 41 20 129 36 195 20 76 27 123 21 129 -12 12 -22 -15
-56 -147 -21 -80 -27 -127 -28 -217 -1 -63 3 -132 7 -152 7 -34 6 -38 -11 -38
-24 0 -32 40 -32 172 0 123 30 279 69 356 56 111 196 212 293 212 136 0 248
-149 248 -329 -1 -131 -61 -330 -116 -382 -35 -33 -31 -7 11 82 48 103 69 189
69 289 0 106 -22 175 -73 228 -78 80 -181 91 -263 29 -51 -39 -65 -72 -109
-262 -59 -257 -41 -392 67 -500 179 -180 410 -134 527 105 70 143 105 340 81
459 -13 64 -22 27 -27 -111 -7 -214 -57 -359 -155 -450 -70 -65 -125 -92 -192
-92 -71 0 -126 28 -200 103 -79 78 -103 143 -104 276 -1 126 16 138 26 18 13
-144 55 -245 124 -289 61 -41 218 -10 283 55 104 104 167 383 127 562 -35 156
-98 243 -212 290 -29 12 -51 26 -48 31 9 14 64 9 70 -7z m-191 -36 c58 -15 81
-39 37 -39 -40 0 -157 -61 -205 -108 -113 -108 -153 -224 -164 -469 -5 -113
-9 -140 -19 -136 -28 10 -13 287 21 404 36 126 115 233 205 279 45 23 59 40
33 40 -32 0 -119 -57 -166 -109 -39 -45 -107 -177 -107 -210 0 -5 -18 -50 -39
-99 -37 -84 -58 -177 -64 -281 -1 -28 -7 -46 -16 -49 -12 -4 -13 12 -8 99 8
125 20 171 91 352 81 204 138 270 281 319 60 21 64 21 120 7z m191 -35 c62
-36 118 -102 145 -170 21 -53 24 -74 23 -199 -1 -122 -4 -152 -28 -230 -51
-172 -130 -248 -257 -246 -79 1 -120 27 -154 96 -65 133 -72 456 -11 560 82
139 270 97 315 -70 43 -160 -29 -445 -130 -512 -34 -22 -40 -23 -65 -11 -39
18 -62 63 -79 153 -18 91 -20 273 -4 347 20 92 80 129 149 93 60 -31 80 -120
61 -267 -13 -98 -50 -220 -68 -226 -19 -5 -16 27 8 100 23 71 35 212 25 282
-10 62 -43 101 -79 92 -38 -9 -57 -44 -70 -125 -20 -132 18 -402 60 -418 24
-9 25 3 4 39 -27 45 -45 205 -37 327 7 102 21 144 49 149 36 7 46 -26 46 -143
-1 -116 -8 -158 -24 -153 -6 2 -9 49 -6 126 2 84 0 122 -8 122 -6 0 -11 -1
-11 -3 0 -1 -5 -40 -10 -85 -11 -86 1 -263 21 -329 22 -69 64 -23 105 113 23
74 28 109 28 204 1 101 -2 120 -21 157 -43 79 -123 109 -180 67 -16 -11 -39
-42 -53 -70 -21 -42 -25 -65 -29 -167 -8 -260 47 -417 147 -417 63 0 115 23
164 71 38 38 51 61 71 125 56 178 59 333 7 442 -43 90 -119 155 -196 166 -15
2 -16 9 -6 34 6 17 42 8 98 -24z m331 -38 c-4 -9 -10 -16 -14 -16 -7 0 -36 42
-51 72 -2 3 7 8 20 10 26 4 55 -39 45 -66z m-1337 -37 c0 -6 -23 -56 -51 -111
-49 -94 -70 -120 -87 -104 -7 8 41 103 90 183 26 41 48 56 48 32z m1480 -487
c0 -274 -86 -439 -283 -538 -171 -87 -377 -78 -479 20 -49 48 -118 136 -118
151 0 32 20 22 50 -25 79 -122 192 -177 348 -167 107 6 185 34 255 91 96 78
155 168 183 281 13 52 -15 23 -41 -42 -50 -126 -104 -190 -221 -261 -115 -70
-128 -46 -15 27 125 81 168 139 253 349 27 66 32 93 36 187 l5 110 13 -45 c8
-25 14 -87 14 -138z m-1056 15 c-3 -45 -7 -102 -8 -127 -1 -34 -5 -46 -18 -48
-15 -3 -18 4 -18 42 0 45 17 190 25 214 3 7 10 10 15 7 7 -4 9 -35 4 -88z
m1115 54 c20 -13 9 -216 -17 -297 -52 -164 -162 -296 -305 -365 -133 -64 -262
-83 -377 -56 -81 20 -113 38 -116 67 l-2 26 61 -31 c58 -28 68 -30 177 -30 95
0 126 4 175 23 84 31 188 105 242 170 94 117 133 231 133 400 0 56 3 102 8
102 4 0 13 -4 21 -9z m195 -171 c6 -71 5 -77 -19 -104 -28 -31 -43 -30 -26 2
6 12 11 58 11 105 0 131 23 129 34 -3z m49 63 c6 -37 2 -53 -12 -53 -10 0 -23
69 -15 82 11 17 22 7 27 -29z m-174 -107 c-1 -123 -8 -167 -26 -173 -7 -3 -9
3 -6 16 12 48 -16 15 -52 -61 -91 -189 -290 -323 -511 -345 -81 -8 -106 -25
-45 -31 51 -5 155 16 229 45 75 30 183 101 225 146 22 25 30 28 40 18 10 -10
3 -21 -33 -53 -102 -92 -241 -159 -374 -180 -83 -13 -87 -12 -221 44 -99 41
-105 45 -99 62 4 11 13 11 47 -2 66 -24 215 -28 300 -7 238 57 416 233 478
472 10 42 19 101 19 131 0 47 2 53 15 42 12 -10 15 -36 14 -124z m66 37 c-10
-120 -18 -165 -30 -164 -5 1 -10 8 -9 16 0 8 1 65 2 125 2 104 3 110 23 110
20 0 21 -3 14 -87z m-205 -502 c0 -36 -164 -145 -280 -186 -71 -25 -175 -36
-239 -26 -76 12 -251 80 -251 97 0 18 33 18 68 0 75 -38 186 -66 261 -66 121
1 279 66 382 159 50 45 59 49 59 22z m30 -41 c0 -5 -14 -25 -31 -45 -20 -22
-26 -35 -17 -35 8 0 19 5 26 12 6 6 15 8 19 4 11 -10 -34 -42 -87 -62 -162
-60 -200 -77 -200 -86 0 -20 86 0 182 42 51 23 99 44 107 47 9 4 8 -2 -4 -21
-23 -35 -116 -82 -202 -102 -54 -12 -82 -13 -152 -5 -47 6 -109 11 -136 11
-93 0 -315 76 -315 107 0 11 5 13 18 8 158 -66 280 -90 374 -75 126 19 304
106 377 184 25 27 41 33 41 16z m-680 -231 c91 -27 361 -61 445 -57 57 2 70 0
70 -12 0 -32 -325 -18 -495 21 -77 18 -160 59 -160 80 0 18 2 19 38 3 20 -9
66 -25 102 -35z m132 -99 c82 -13 170 -20 266 -20 78 0 142 -3 142 -7 0 -5 -5
-15 -10 -23 -28 -44 -552 14 -612 67 -36 32 -21 41 36 22 30 -11 110 -28 178
-39z m-66 -55 c69 -14 161 -34 204 -45 43 -11 103 -20 134 -20 48 0 56 -3 56
-19 0 -17 -11 -20 -87 -26 -86 -6 -374 8 -407 21 -12 5 -25 45 -13 44 1 0 38
-7 82 -15 44 -8 96 -14 115 -15 32 0 33 1 18 16 -11 11 -51 21 -117 30 -110
14 -121 18 -121 40 0 18 -12 18 136 -11z m202 -134 c100 -1 182 -5 182 -10 0
-5 -11 -16 -25 -25 -23 -15 -45 -16 -222 -6 -158 8 -200 13 -215 27 -29 26
-22 30 40 22 31 -4 139 -8 240 -8z m121 -77 c2 -2 -4 -13 -14 -24 -17 -19 -26
-20 -134 -15 -209 11 -204 11 -220 35 l-15 22 190 -7 c104 -4 191 -9 193 -11z
m-90 -74 c25 -6 25 -7 6 -17 -13 -6 -45 -7 -90 -2 -38 4 -96 8 -127 8 -48 1
-56 4 -51 17 5 14 21 15 121 9 63 -4 127 -11 141 -15z m-189 -50 c-20 -13 -40
-13 -40 0 0 6 12 10 28 10 21 0 24 -2 12 -10z"/>
<path d="M2030 2254 c0 -8 18 -53 40 -98 52 -110 66 -197 50 -314 -31 -222
-122 -379 -268 -464 -104 -61 -186 -58 -295 9 -66 40 -84 37 -43 -6 43 -45
120 -74 192 -74 135 1 286 115 362 273 56 117 73 185 79 322 6 137 -12 214
-72 311 -39 60 -45 66 -45 41z"/>
</g>
</svg>
